<svg width="24" height="24" viewBox="0 0 24 24" fill="none" xmlns="http://www.w3.org/2000/svg">
<path d="M7.5 6C7.5 6.82843 6.82843 7.5 6 7.5C5.17157 7.5 4.5 6.82843 4.5 6C4.5 5.17157 5.17157 4.5 6 4.5C6.82843 4.5 7.5 5.17157 7.5 6Z" fill="#C4C4C4"/>
<path d="M16.5 6C16.5 6.82843 17.1716 7.5 18 7.5C18.8284 7.5 19.5 6.82843 19.5 6C19.5 5.17157 18.8284 4.5 18 4.5C17.1716 4.5 16.5 5.17157 16.5 6Z" fill="#C4C4C4"/>
<path d="M13.5 3.5C13.5 4.32843 12.8284 5 12 5C11.1716 5 10.5 4.32843 10.5 3.5C10.5 2.67157 11.1716 2 12 2C12.8284 2 13.5 2.67157 13.5 3.5Z" fill="#C4C4C4"/>
<path d="M13.5 20.5C13.5 21.3284 12.8284 22 12 22C11.1716 22 10.5 21.3284 10.5 20.5C10.5 19.6716 11.1716 19 12 19C12.8284 19 13.5 19.6716 13.5 20.5Z" fill="#C4C4C4"/>
<path d="M7.5 18C7.5 18.8284 6.82843 19.5 6 19.5C5.17157 19.5 4.5 18.8284 4.5 18C4.5 17.1716 5.17157 16.5 6 16.5C6.82843 16.5 7.5 17.1716 7.5 18Z" fill="#C4C4C4"/>
<path d="M16.5 18C16.5 18.8284 17.1716 19.5 18 19.5C18.8284 19.5 19.5 18.8284 19.5 18C19.5 17.1716 18.8284 16.5 18 16.5C17.1716 16.5 16.5 17.1716 16.5 18Z" fill="#C4C4C4"/>
<path d="M5 12C5 12.8284 4.32843 13.5 3.5 13.5C2.67157 13.5 2 12.8284 2 12C2 11.1716 2.67157 10.5 3.5 10.5C4.32843 10.5 5 11.1716 5 12Z" fill="#C4C4C4"/>
<path d="M19 12C19 12.8284 19.6716 13.5 20.5 13.5C21.3284 13.5 22 12.8284 22 12C22 11.1716 21.3284 10.5 20.5 10.5C19.6716 10.5 19 11.1716 19 12Z" fill="#C4C4C4"/>
</svg>
