<svg width="24" height="24" viewBox="0 0 24 24" fill="none" xmlns="http://www.w3.org/2000/svg">
<path d="M20 12C20 16.4183 16.4183 20 12 20C9.25032 20 7.49999 19 5.38467 16.5M5 19V16H8" stroke="url(#paint0_linear)" stroke-linecap="round" stroke-linejoin="round"/>
<path d="M4.00001 12C4.00001 7.58172 7.58173 4 12 4C14.7497 4 16.5 5 18.6153 7.5M19 5V8H16" stroke="url(#paint1_linear)" stroke-linecap="round" stroke-linejoin="round"/>
<path d="M12 14C10.8954 14 10 13.1046 10 12V12C10 10.8954 10.8954 10 12 10V10C13.1046 10 14 10.8954 14 12V12C14 13.1046 13.1046 14 12 14V14Z" fill="#C4C4C4"/>
<defs>
<linearGradient id="paint0_linear" x1="5" y1="16" x2="20.5" y2="12.5" gradientUnits="userSpaceOnUse">
<stop stop-color="white"/>
<stop offset="1" stop-color="white" stop-opacity="0"/>
</linearGradient>
<linearGradient id="paint1_linear" x1="19" y1="8" x2="3.5" y2="11.5" gradientUnits="userSpaceOnUse">
<stop stop-color="white"/>
<stop offset="1" stop-color="white" stop-opacity="0"/>
</linearGradient>
</defs>
</svg>
